<svg class="i-logo" viewBox="0 0 476 86" width="180" height="36" role="img">
    <title>Walker Art Center logo</title>
    <path d="M476 86l-23.77-37.03c10.99-4.298 17.082-12.54 17.082-23.41 0-14.813-10.63-24.61-28.908-24.61H406.36V86h16.486V15.405h17.08c8.123 0 12.543 3.345 12.543 10.75 0 5.854-4.183 11.23-12.663 11.23h-10.274V51.6h5.973L456.53 86H476zm-85.573 0V71.19h-40.49V50.045h36.667V35.473h-36.667v-19.71h40.012V.953h-56.5V86h56.976zm-67.546 0l-31.174-45.15L321.21.95h-19.113l-25.203 34.642h-6.33V.952h-16.486V86h16.485V49.33h7.644L303.29 86h19.59zm-79.085 0V71.19h-39.06V.95H188.25V86h55.544zm-96.217-36.432h-18.394l8.838-26.28h.717l8.84 26.28zM177.678 86L146.144.95h-15.05L99.557 86h17.2l7.646-22.455h27.95L160 86h17.678zM102.49.95H85.764L73.7 57.21 58.41.95H45.034l-15.41 57.457L17.32.95H0L20.307 86H34.76l16.604-59.725L67.73 86h14.45L102.49.95z"></path>
</svg>